<?xml version="1.0" encoding="UTF-8"?>
<svg id="Ebene_1" data-name="Ebene 1" xmlns="http://www.w3.org/2000/svg" viewBox="0 0 843.99 957.03">
    <defs>
        <style>
            .cls-1 {
                fill: #c0c0c0;
            }

            @media (prefers-color-scheme: light) {
                .cls-1 {
                    fill: #111827;
                }
            }
        </style>
    </defs>
    <path class="cls-1"
          d="M843.99,245.65l-.41,459.97-418.59,251.41-7.01-2.06L.07,705.29l-.07-459.71L420.62,0h4.34s419.03,245.65,419.03,245.65ZM59.24,279l.49,393.2,363.06,215.55,363.03-215.66.04-391.77L424.96,66.84h-4.34S59.24,279,59.24,279Z"/>
    <path class="cls-1"
          d="M441.78,134.45l220.13,128.48c24.88,15.87,42.33,31.26,49.8,61.08,10.11,40.33-2.29,91.06-40.55,111.95,76.02,36.31,80.46,156.13,19.76,208.13l-249.13,160.24V134.45ZM517.73,398.76h90.38c.95,0,10.64-3.46,12.44-4.26,29.34-13,34.43-53.14,7.01-71.39-34.24-22.78-74.81-40.69-109.1-64.07-4.64-.41-.73,1.64-.73,2.26v137.47ZM517.73,664.58l115.32-73.8c26.34-18.22,29.03-75.89,8.99-98.36-5.81-6.51-25.63-17.72-33.93-17.72h-90.38v189.87Z"/>
    <path class="cls-1"
          d="M327.86,179.26l73.7-44.79c4.64-.4.73,1.65.73,2.26v671.4c0,.61,3.9,2.66-.73,2.26-75.02-49.04-153.45-93.21-228.51-142.13-28.8-18.77-53.29-35.38-53.29-74.3v-69.11h72.91v58.48c0,5.15,6.25,17.72,11.66,20.24l123.53,74.69V179.26Z"/>
</svg>